<svg width="1358" height="504" viewBox="0 0 1358 504" fill="none" xmlns="http://www.w3.org/2000/svg">
<path d="M11.1752 123.807C4.63083 88.0854 -13.1655 30 30.4622 30C68.386 43.8003 30.4622 93.5193 73.2424 129.914C82.0873 150.34 68.8915 160.864 44.5746 158.728C24.2943 156.947 15.1791 145.662 11.1752 123.807Z" stroke="#29346F" stroke-width="3" stroke-linecap="round" stroke-linejoin="round"/>
<path d="M191.175 113.534C184.631 77.5357 166.835 19 210.462 19C248.386 32.9072 210.462 83.0117 253.242 119.689C262.087 140.273 248.891 150.878 224.575 148.726C204.294 146.931 195.179 135.559 191.175 113.534Z" stroke="#29346F" stroke-width="3" stroke-linecap="round" stroke-linejoin="round"/>
<path d="M415.175 154.534C408.631 118.536 390.835 60 434.462 60C472.386 73.9072 434.462 124.012 477.242 160.689C486.087 181.273 472.891 191.878 448.575 189.726C428.294 187.931 419.179 176.559 415.175 154.534Z" stroke="#29346F" stroke-width="3" stroke-linecap="round" stroke-linejoin="round"/>
<path d="M570.175 154.534C563.631 118.536 545.835 60 589.462 60C627.386 73.9072 589.462 124.012 632.242 160.689C641.087 181.273 627.891 191.878 603.575 189.726C583.294 187.931 574.179 176.559 570.175 154.534Z" stroke="#29346F" stroke-width="3" stroke-linecap="round" stroke-linejoin="round"/>
<path d="M56 18.1484C56 32.3253 56 59.8789 56 74.0559C56 83.5222 56.4235 84.1944 65.549 84.0026C79.1545 83.7168 91.7433 78.4087 105.285 77.8288C111.394 77.5672 105.285 51.6871 105.285 44.451C105.285 37.534 103.129 11.2314 103.129 18.1484C103.129 33.8755 106.677 46.9796 107.461 62.682C108.646 86.4457 105.285 125.094 105.285 149" stroke="#29346F" stroke-width="3" stroke-linecap="round" stroke-linejoin="round"/>
<path d="M174 25C158.355 67.5261 141.106 113.657 118 152" stroke="#29346F" stroke-width="3" stroke-linecap="round" stroke-linejoin="round"/>
<path d="M354 54C338.355 96.5261 321.106 142.657 298 181" stroke="#29346F" stroke-width="3" stroke-linecap="round" stroke-linejoin="round"/>
<path d="M1147 94C1131.36 136.526 1114.11 182.657 1091 221" stroke="#29346F" stroke-width="3" stroke-linecap="round" stroke-linejoin="round"/>
<path d="M224 2C236.375 2 248.75 2 261.126 2C274.296 2 271.212 4.82545 267.521 17.5215C266.076 22.4913 258.143 64.4101 260.502 63.396C287.575 51.756 304.296 99.1165 304.959 122.205C305.779 150.751 294.334 172.127 270.329 183.256C260.684 187.728 250.166 190.304 240.847 185.153" stroke="#29346F" stroke-width="3" stroke-linecap="round" stroke-linejoin="round"/>
<path d="M652 126C678.333 126 704.667 126 731 126" stroke="#29346F" stroke-width="3" stroke-linecap="round" stroke-linejoin="round"/>
<path d="M811.517 160.807C786.364 141.816 785.929 114.724 815.807 96.8661C837.443 83.9348 871.443 116.957 865.261 151.928C862.407 158.731 857.96 170.338 849.825 171.439C834.901 173.46 823.749 170.042 811.517 160.807Z" stroke="#29346F" stroke-width="3" stroke-linecap="round" stroke-linejoin="round"/>
<path d="M1043.01 168.664C1018.55 149.429 1018.12 121.99 1047.18 103.903C1068.23 90.8058 1101.29 124.251 1095.28 159.671C1092.51 166.561 1088.18 178.316 1080.27 179.432C1065.75 181.479 1054.91 178.017 1043.01 168.664Z" stroke="#29346F" stroke-width="3" stroke-linecap="round" stroke-linejoin="round"/>
<path d="M879.07 81.6776C879.07 116.213 879.07 150.748 879.07 185.284C879.07 192.918 879.07 186.006 879.07 183.545C879.07 170.458 878.834 157.34 879.227 144.258C879.816 124.629 881.699 103.094 884.865 83.7636C886.258 75.2583 899.956 89.1897 900.995 90.3694C913.89 105.001 936.11 168.54 946.724 185.284C958.633 204.068 946.724 146.413 946.724 128.961C946.724 105.199 946.425 81.3829 953.772 58.7312C956.009 51.8313 958 48.3545 958 41" stroke="#29346F" stroke-width="3" stroke-linecap="round" stroke-linejoin="round"/>
<path d="M1159.07 100.403C1159.07 134.705 1159.07 169.007 1159.07 203.309C1159.07 210.892 1159.07 204.026 1159.07 201.582C1159.07 188.583 1158.84 175.554 1159.22 162.561C1159.81 143.064 1161.66 121.675 1164.79 102.475C1166.17 94.0268 1179.69 107.864 1180.72 109.036C1193.45 123.568 1215.39 186.678 1225.87 203.309C1237.63 221.967 1225.87 164.701 1225.87 147.367C1225.87 123.765 1225.57 100.11 1232.83 77.6114C1235.03 70.7581 1237 67.3048 1237 60" stroke="#29346F" stroke-width="3" stroke-linecap="round" stroke-linejoin="round"/>
<path d="M991.85 73C962.504 79.8001 941.325 143.914 968.672 166.214C982.455 177.454 994.32 177.892 1003.28 162.417C1013.36 145.006 1014.45 173.907 1016.3 185.893C1019.51 206.658 1025.25 226.593 1029 247" stroke="#29346F" stroke-width="3" stroke-linecap="round" stroke-linejoin="round"/>
<path d="M1279.36 73C1250.42 79.8001 1229.53 143.914 1256.5 166.214C1270.09 177.454 1281.79 177.892 1290.63 162.417C1300.58 145.006 1301.65 173.907 1303.47 185.893C1306.64 206.658 1312.3 226.593 1316 247" stroke="#29346F" stroke-width="3" stroke-linecap="round" stroke-linejoin="round"/>
<path d="M362.095 70C370.305 70 375.831 71.4335 381.774 78.5839C386.18 83.8852 386.026 93.9944 386.487 100.702C387.157 110.456 387.934 122.177 385.495 131.677C383.701 138.662 376.22 142.856 370.86 146.211C364.805 150 358.532 153.315 352.462 157.066C350.711 158.148 348.972 159.596 347.212 160.563C346.315 161.056 344.055 161.197 343.491 161.971C341.711 164.416 337.659 163.668 335.471 165.831C334.269 167.02 333.55 167.484 332.04 168.148C331.534 168.37 336.031 169.311 336.174 169.328C343.515 170.245 350.75 171.457 358.044 172.826C366.238 174.363 374.953 176.277 383.303 176.277C386.605 176.277 389.999 176.24 393.184 177.277C397.514 178.686 401.784 180.456 406 182" stroke="#29346F" stroke-width="3" stroke-linecap="round" stroke-linejoin="round"/>
<path d="M517.688 84C525.788 84 531.239 85.4335 537.101 92.5839C541.447 97.8852 541.296 107.994 541.75 114.702C542.411 124.456 543.178 136.177 540.772 145.677C539.003 152.662 531.623 156.856 526.334 160.211C520.362 164 514.174 167.315 508.186 171.066C506.458 172.148 504.742 173.596 503.007 174.563C502.122 175.056 499.892 175.197 499.336 175.971C497.579 178.416 493.583 177.668 491.424 179.831C490.239 181.02 489.529 181.484 488.039 182.148C487.54 182.37 491.976 183.311 492.117 183.328C499.359 184.245 506.496 185.457 513.692 186.826C521.775 188.363 530.372 190.277 538.61 190.277C541.867 190.277 545.215 190.24 548.357 191.277C552.629 192.686 556.841 194.456 561 196" stroke="#29346F" stroke-width="3" stroke-linecap="round" stroke-linejoin="round"/>
<g filter="url(#filter0_d)">
<path d="M1037.59 300.76C1046.56 313.937 1050.03 333.291 1053.33 351.81C1055.53 364.12 1057.32 376.701 1059.88 388.75C1062.08 399.09 1064.43 410.292 1069.7 417.66C1074.75 424.72 1082.95 429.197 1090.7 416.386C1105.38 392.113 1109 360.967 1113.75 334.858C1117.41 314.756 1121.56 289.51 1133.09 271.128C1145.02 252.087 1159.48 258.569 1168.48 267.074C1194.02 291.206 1193.12 341.236 1189.31 387.603C1188.61 396.118 1191.15 380.097 1191.17 379.93C1194.62 356.129 1199.9 329.769 1214.33 308.658C1234.81 278.697 1256.38 304.066 1268.53 316.748C1271.53 319.887 1274.97 325.125 1280.27 320.901C1287.69 314.994 1293.94 298.927 1298.37 290.3C1306.26 274.939 1335.66 284.801 1343.07 269.156" stroke="#29346F" stroke-opacity="0.9" stroke-width="3" stroke-linecap="round" stroke-linejoin="round"/>
</g>
<g filter="url(#filter1_d)">
<path d="M1328.99 258.645C1333.97 259.889 1339.71 260.255 1345.4 258.095C1346.75 257.586 1348.14 257.057 1349.46 256.854C1349.92 256.782 1350.83 256.212 1351.17 256.66C1351.29 256.825 1351.12 257.393 1351.07 257.597C1350.68 259.128 1350.38 260.633 1350.08 262.161C1349.33 266.044 1348.53 269.931 1347.99 273.789C1347.61 276.486 1347 279.222 1346.61 281.914C1346.51 282.61 1346.2 283.843 1346.43 284.359" stroke="#29346F" stroke-opacity="0.9" stroke-width="3" stroke-linecap="round" stroke-linejoin="round"/>
</g>
<defs>
<filter id="filter0_d" x="1032.14" y="257.205" width="316.384" height="176.864" filterUnits="userSpaceOnUse" color-interpolation-filters="sRGB">
<feFlood flood-opacity="0" result="BackgroundImageFix"/>
<feColorMatrix in="SourceAlpha" type="matrix" values="0 0 0 0 0 0 0 0 0 0 0 0 0 0 0 0 0 0 127 0"/>
<feOffset dy="4"/>
<feGaussianBlur stdDeviation="2"/>
<feColorMatrix type="matrix" values="0 0 0 0 0 0 0 0 0 0 0 0 0 0 0 0 0 0 0.25 0"/>
<feBlend mode="normal" in2="BackgroundImageFix" result="effect1_dropShadow"/>
<feBlend mode="normal" in="SourceGraphic" in2="effect1_dropShadow" result="shape"/>
</filter>
<filter id="filter1_d" x="1323.54" y="254.943" width="33.1265" height="38.9623" filterUnits="userSpaceOnUse" color-interpolation-filters="sRGB">
<feFlood flood-opacity="0" result="BackgroundImageFix"/>
<feColorMatrix in="SourceAlpha" type="matrix" values="0 0 0 0 0 0 0 0 0 0 0 0 0 0 0 0 0 0 127 0"/>
<feOffset dy="4"/>
<feGaussianBlur stdDeviation="2"/>
<feColorMatrix type="matrix" values="0 0 0 0 0 0 0 0 0 0 0 0 0 0 0 0 0 0 0.25 0"/>
<feBlend mode="normal" in2="BackgroundImageFix" result="effect1_dropShadow"/>
<feBlend mode="normal" in="SourceGraphic" in2="effect1_dropShadow" result="shape"/>
</filter>
</defs>
</svg>
