<svg xmlns="http://www.w3.org/2000/svg" xmlns:xlink="http://www.w3.org/1999/xlink" width="816" height="1056" viewBox="0 0 612 792"><clipPath id="a"><path transform="matrix(1 0 0 -1 0 792)" d="M0 0h612v792H0z"/></clipPath><g clip-path="url(#a)"><path d="M0 0h612v792H0z" fill="#fff"/><clipPath id="b"><path transform="matrix(1 0 0 -1 0 792)" d="M67.781 72H544.22v651.938H67.78z"/></clipPath><g clip-path="url(#b)"><symbol id="c"><path d="M.017.145c.005 0 .011 0 .016-.002A.169.169 0 01.072.037.117.117 0 01.127.018h.018a.17.17 0 01.062.008.114.114 0 01.045.025c.012.013.024.031.035.055a.154.154 0 01-.01.116.656.656 0 01-.026.063L.204.383A.512.512 0 00.18.45a.169.169 0 00.01.116c.01.02.026.038.046.053S.273.646.29.65c.02.007.044.01.068.01A.36.36 0 00.495.631a.245.245 0 00-.008-.05A.47.47 0 00.47.528L.454.529a.24.24 0 01-.012.064.069.069 0 01-.027.036.085.085 0 01-.05.015.118.118 0 01-.088-.033.119.119 0 01-.033-.088c0-.02.003-.04.009-.059A.981.981 0 01.304.351.75.75 0 00.362.197.18.18 0 00.365.166a.136.136 0 00-.05-.11A.268.268 0 00.14 0 .461.461 0 000 .022v.003L.005.06a1.202 1.202 0 01.012.084z"/></symbol><symbol id="d"><path d="M.165.646l.002.01a1.471 1.471 0 00.118.01L.282.656.27.624.24.542A1.337 1.337 0 01.221.484a1.347 1.347 0 00-.047-.13A1.422 1.422 0 01.128.229a.528.528 0 01.02.027c.046.066.085.11.116.135a.103.103 0 00.063.024c.016 0 .03-.007.042-.021C.381.38.387.359.387.33A.394.394 0 00.36.198.435.435 0 00.293.075.227.227 0 00.228.014.11.11 0 00.179 0C.167 0 .157.003.15.01a.045.045 0 00-.014.032c0 .004.002.009.008.013a.03.03 0 00.02.007A.025.025 0 00.18.058.093.093 0 00.198.036C.203.03.208.028.21.028c.007 0 .015.007.026.02a.62.62 0 01.071.16C.33.271.34.318.34.35.34.367.337.38.333.385a.024.024 0 01-.02.01A.036.036 0 01.296.39.218.218 0 01.24.345.745.745 0 01.094.127 2.932 2.932 0 01.048.024a.05.05 0 00-.012-.02A.025.025 0 00.02 0C.013 0 .008.001.004.004.001.007 0 .01 0 .015 0 .021.003.03.008.042l.035.087a.211.211 0 01.005.013l.139.395.02.056a.108.108 0 01.007.03c0 .003 0 .006-.003.008C.21.634.206.635.201.636a.195.195 0 00-.036.01z"/></symbol><symbol id="e"><path d="M.17.59c0 .01.005.02.014.03.008.009.019.013.03.013S.234.63.243.622A.037.037 0 00.254.595.052.052 0 00.24.559C.234.553.223.55.208.55.198.55.188.554.18.562a.039.039 0 00-.01.028M.15.37L.136.37A.217.217 0 01.061.308L.033.3a.31.31 0 00.083.08C.146.4.171.41.188.41.196.41.201.408.205.404A.018.018 0 00.211.39.218.218 0 00.184.31 1.406 1.406 0 00.105.154.827.827 0 01.069.087.087.087 0 01.054.049L.057.043A.01.01 0 01.063.041c.004 0 .01.001.016.005A.264.264 0 01.162.13h.02A.397.397 0 00.14.07.225.225 0 00.077.016.095.095 0 00.03 0C.02 0 .012.002.007.007A.021.021 0 000 .024c0 .025.018.072.055.142l.079.148a.32.32 0 01.02.047.03.03 0 01-.003.01z"/></symbol><symbol id="f"><path d="M.21.64l.005.013c.042 0 .08.005.114.015h.018a.32.32 0 00-.013-.03L.244.441.192.333.168.277A.06.06 0 01.164.265l.024.017.068.065a.36.36 0 00.08.055A.15.15 0 00.4.417.09.09 0 00.46.394.053.053 0 00.477.352C.478.322.46.294.429.267a.204.204 0 00-.135-.04.584.584 0 00-.08.006.304.304 0 01.03-.072 1.24 1.24 0 01.04-.062.212.212 0 01.08-.07A.09.09 0 01.399.02c.017 0 .032.004.043.014.012.01.018.02.018.029a.014.014 0 01-.004.01C.454.077.45.08.449.08A.102.102 0 01.428.07a.034.034 0 00-.036.005.02.02 0 00-.007.017c0 .008.003.015.01.021.008.006.018.01.033.01C.446.12.458.114.465.105A.064.064 0 00.48.064C.48.048.472.033.458.02A.086.086 0 00.398 0a.196.196 0 00-.102.026.288.288 0 00-.087.09.53.53 0 00-.051.12.362.362 0 01-.034-.065A1.457 1.457 0 01.104.13.969.969 0 00.046.016a.023.023 0 00-.02-.01.087.087 0 00-.024.005A.023.023 0 000 .02c0 .008.011.034.034.076a2.877 2.877 0 00.052.117L.16.376.19.441c.02.051.041.1.061.144.003.01.005.018.005.026A.02.02 0 01.25.625C.248.629.241.632.229.635A.173.173 0 00.21.641M.194.26A.19.19 0 01.24.252c.053 0 .1.007.139.021.029.011.049.024.06.038a.067.067 0 01.017.04c0 .005-.003.01-.009.014C.443.37.435.373.424.373A.213.213 0 01.36.362.386.386 0 01.194.26z"/></symbol><symbol id="g"><path d="M.333.366l.006.013c.004.01.008.016.012.019a.21.21 0 00.02.001.04.04 0 00.016-.003L.388.39c0-.002 0-.005-.002-.009A.195.195 0 01.379.363L.375.353.343.266A1.254 1.254 0 00.307.17.701.701 0 01.281.1.262.262 0 00.26.048L.257.043C.258.041.26.038.264.035A.187.187 0 01.3.062a.815.815 0 01.056.057.107.107 0 00.011-.01A.485.485 0 00.264.01.083.083 0 00.227 0C.219 0 .213.002.209.005a.016.016 0 00-.005.013L.21.043a.698.698 0 00.03.074.75.75 0 00.02.046.705.705 0 00-.114-.122A.33.33 0 00.09.01.145.145 0 00.049 0a.065.065 0 00-.025.004.047.047 0 00-.019.02A.071.071 0 000 .056a.37.37 0 00.142.251.351.351 0 00.074.047c.03.013.056.02.077.02a.104.104 0 00.04-.008M.1.046a.073.073 0 01.02.008C.125.056.138.064.16.08l.067.068A.428.428 0 01.29.248L.302.28.31.315c0 .01-.004.018-.011.026C.293.346.285.35.274.35A.077.077 0 01.24.342.24.24 0 01.185.305a.487.487 0 01-.11-.16.2.2 0 01-.019-.065C.056.068.06.059.063.053a.023.023 0 01.019-.01A.24.24 0 01.1.046z"/></symbol><symbol id="i"><path d="M.155.37A.167.167 0 01.109.333.439.439 0 01.057.28L.042.285a.35.35 0 00.045.054c.025.027.05.048.077.063a.07.07 0 00.034.012.022.022 0 00.016-.007.02.02 0 00.007-.015.07.07 0 00-.008-.028.618.618 0 01-.147-.31V.05c.009.001.02.008.035.02A1.008 1.008 0 01.22.186a.879.879 0 01.092.11c.015.022.035.06.063.116l.022.001A.02.02 0 00.415.405a1.934 1.934 0 00-.039-.1L.286.078A.125.125 0 01.273.046h.004c.002 0 .007.003.016.01A.328.328 0 01.34.109l.015.02.016-.003A.388.388 0 00.293.028C.273.01.256 0 .245 0a.064.064 0 00-.017.003C.222.009.219.015.219.02c0 .016.007.04.02.07l.07.161a.03.03 0 01.003.01A1.572 1.572 0 00.152.09.6.6 0 00.044.01.057.057 0 00.016 0a.016.016 0 00-.012.005A.02.02 0 000 .02l.003.02a.416.416 0 00.028.063l.084.164.034.073c.006.01.01.017.01.021a.024.024 0 01-.004.01z"/></symbol><symbol id="j"><path d="M.158.63A.07.07 0 01.12.64H.112v.013c.01.003.028.004.055.005.005 0 .026 0 .062.003a2.47 2.47 0 00-.03-.094L.163.452A1.696 1.696 0 00.138.375L.085.2l.07.093C.198.342.222.369.23.376a.172.172 0 00.046.032.094.094 0 00.037.009C.324.417.334.41.344.399A.08.08 0 00.363.347.304.304 0 00.33.214.438.438 0 00.239.09a.399.399 0 00-.11-.07A.172.172 0 00.061 0a.065.065 0 00-.046.015A.048.048 0 000 .051a.23.23 0 00.01.063l.026.09.093.29C.14.53.151.56.161.586c.004.01.006.02.006.027 0 .005-.003.01-.009.017M.082.02c.01 0 .02.003.032.01a.641.641 0 01.134.142c.022.035.04.07.053.106.01.026.015.049.015.068 0 .01-.003.017-.009.022a.031.031 0 01-.023.009.06.06 0 01-.03-.01A.32.32 0 01.181.3 1.144 1.144 0 01.093.187.331.331 0 01.061.11.248.248 0 01.048.055c0-.01.003-.018.01-.025A.032.032 0 01.082.02z"/></symbol><symbol id="k"><path d="M.104.37a.198.198 0 01-.03-.027A2.435 2.435 0 01.03.285L.01.284C.018.3.033.323.055.349A.249.249 0 00.113.4a.08.08 0 00.035.011C.156.41.162.407.165.402A.021.021 0 00.169.39C.17.383.17.378.167.372a.86.86 0 00-.05-.155L.092.157.09.147.118.2C.17.3.209.363.232.387a.084.084 0 00.061.025A.054.054 0 00.33.396.043.043 0 00.342.364.056.056 0 00.328.326.035.035 0 00.3.314C.29.314.283.317.28.321.275.326.272.338.27.357.267.365.263.37.257.37.252.37.247.367.241.36A.728.728 0 01.152.227 1.317 1.317 0 01.044.008C.041.003.034 0 .024 0 .016 0 .01.002.005.005A.014.014 0 000 .017C0 .023.002.03.005.039.019.073.04.136.072.228l.034.105.005.018.003.007C.114.36.111.365.104.37z"/></symbol><symbol id="l"><path d="M.176.364L.17.366C.164.366.154.361.142.352A.31.31 0 01.074.284a.362.362 0 00-.018.002c.01.017.02.03.03.04.023.025.04.04.049.047a.244.244 0 00.051.031A.06.06 0 00.21.41.025.025 0 00.228.403C.233.4.235.395.235.39A.611.611 0 00.178.26a.865.865 0 01-.02-.043l.068.077c.02.024.047.05.08.08.013.012.028.02.045.027.016.006.03.01.04.01A.033.033 0 00.416.4C.419.397.42.391.42.384A.385.385 0 00.365.238L.342.195.34.187l.05.06a2.584 2.584 0 00.054.057.353.353 0 00.085.077.15.15 0 00.07.027.026.026 0 00.02-.01.031.031 0 00.007-.022L.624.357A.295.295 0 00.608.314a4.993 4.993 0 00-.08-.143L.505.133a.226.226 0 00-.027-.04C.458.072.45.057.45.045c0-.001 0-.003.003-.004a.553.553 0 01.096.072L.563.108A.24.24 0 00.487.035.178.178 0 00.392 0a.023.023 0 00-.018.008c0 .004 0 .007.002.01a.407.407 0 00.016.027l.08.131c.044.07.07.116.079.135a.239.239 0 01.018.05.012.012 0 01-.003.009.01.01 0 01-.008.004A.04.04 0 01.54.368.295.295 0 01.474.313 3.355 3.355 0 01.361.186.983.983 0 01.255.032a.117.117 0 00-.023-.03A.155.155 0 00.21 0a.096.096 0 00-.026.003A.1.1 0 00.2.032l.075.132.068.128.02.05a.042.042 0 01.002.012c0 .006-.002.01-.005.014C.357.371.354.373.352.373a.053.053 0 01-.023-.01A.282.282 0 01.266.31a2.566 2.566 0 01-.08-.086 1.512 1.512 0 01-.13-.198.1.1 0 00-.02-.022A.192.192 0 00.015 0L.002.003 0 .011c0 .005.002.011.007.02l.08.153.087.17a.033.033 0 01.002.01z"/></symbol><symbol id="m"><path d="M.131.353C.131.355.13.357.128.358a.005.005 0 01-.003.001C.108.36.08.333.045.28a.097.097 0 00-.017 0A.381.381 0 00.11.383a.229.229 0 00.05.031.036.036 0 00.022.003C.188.411.19.405.19.399L.19.387A1.62 1.62 0 00.163.31L.135.238a1.08 1.08 0 01-.02-.053.41.41 0 00.191.218c.017.01.033.015.048.015.01 0 .02-.003.025-.01A.03.03 0 00.39.387L.387.369A.369.369 0 00.372.317 2.503 2.503 0 00.31.173L.261.06.26.054a.02.02 0 01.004-.01C.28.05.308.079.345.133h.02A.528.528 0 00.315.06a.219.219 0 00-.058-.05A.07.07 0 00.221 0C.213 0 .207.002.203.005.2.008.197.012.197.015c0 .018.009.045.025.08L.293.25.32.315l.012.03a.072.072 0 01.001.017c0 .004 0 .007-.003.01a.011.011 0 01-.009.003A.036.036 0 01.303.37a.332.332 0 01-.08-.074A1.197 1.197 0 01.142.188 1.34 1.34 0 01.05.021a.049.049 0 00-.014-.02A.12.12 0 00.021 0a.12.12 0 00-.019.003A.015.015 0 000 .009l.005.018C.012.048.03.093.058.16l.01.026.063.166z"/></symbol><use xlink:href="#c" transform="matrix(14 0 0 -14 250.333 84.527)"/><use xlink:href="#d" transform="matrix(14 0 0 -14 257.842 84.548)"/><use xlink:href="#e" transform="matrix(14 0 0 -14 264.114 84.48)"/><use xlink:href="#f" transform="matrix(14 0 0 -14 267.671 84.644)"/><use xlink:href="#d" transform="matrix(14 0 0 -14 275.426 84.548)"/><use xlink:href="#g" transform="matrix(14 0 0 -14 281.711 84.486)"/><use xlink:href="#h" transform="matrix(14 0 0 -14 287.282 84.315)"/><use xlink:href="#c" transform="matrix(14 0 0 -14 291.605 84.527)"/><use xlink:href="#i" transform="matrix(14 0 0 -14 299.155 84.493)"/><use xlink:href="#j" transform="matrix(14 0 0 -14 305.957 84.52)"/><use xlink:href="#k" transform="matrix(14 0 0 -14 311.903 84.48)"/><use xlink:href="#g" transform="matrix(14 0 0 -14 316.305 84.486)"/><use xlink:href="#l" transform="matrix(14 0 0 -14 322.218 84.507)"/><use xlink:href="#g" transform="matrix(14 0 0 -14 331.58 84.486)"/><use xlink:href="#m" transform="matrix(14 0 0 -14 337.786 84.514)"/><use xlink:href="#e" transform="matrix(14 0 0 -14 344.068 84.48)"/><use xlink:href="#g" transform="matrix(14 0 0 -14 347.707 84.486)"/><use xlink:href="#l" transform="matrix(14 0 0 -14 353.62 84.507)"/><use xlink:href="#h" transform="matrix(14 0 0 -14 362.448 84.315)"/></g><g data-name="P"><symbol id="n"><path d="M.066.663A.024.024 0 01.078.649.073.073 0 01.113.642h.154l.036.002L.35.642l.041.002h.016a1.623 1.623 0 01.117 0c.03.001.054.007.07.02L.601.661h.01A.845.845 0 00.589.55.633.633 0 00.583.524a.104.104 0 00-.02.002C.563.563.556.59.542.603.528.617.502.624.462.624a.848.848 0 01-.117-.01A5.434 5.434 0 00.285.25L.25.073A.139.139 0 00.246.057.068.068 0 01.243.042c0-.005.002-.008.006-.01a.094.094 0 01.04-.007.72.72 0 00.06-.005.008.008 0 00.003-.004L.349 0a.523.523 0 00-.085.005C.21.005.144.004.065.001a.087.087 0 00.008.02.608.608 0 00.053.004L.145.03a.06.06 0 01.02.007.033.033 0 01.008.012c.01.024.02.077.032.159L.25.459c.014.082.022.135.023.16A.66.66 0 01.12.615.12.12 0 01.072.591.354.354 0 01.017.526.162.162 0 010 .528a.967.967 0 01.046.135h.02z"/></symbol><symbol id="o"><path d="M.3.29A.317.317 0 00.23.087C.185.029.138 0 .088 0a.08.08 0 00-.064.03C.008.05 0 .08 0 .121 0 .15.006.182.019.22a.291.291 0 00.065.112.243.243 0 00.062.057.133.133 0 00.072.023c.023 0 .042-.01.058-.03C.292.365.299.333.299.29M.045.067C.045.052.05.04.055.034.064.027.076.023.09.023c.015 0 .03.007.046.022A.44.44 0 01.22.187c.028.066.042.119.042.157a.047.047 0 01-.01.032C.245.385.237.39.229.39c-.02 0-.04-.012-.06-.034A.479.479 0 01.076.199.388.388 0 01.045.067z"/></symbol><symbol id="p"><path d="M0 .02a.023.023 0 00.01.002.295.295 0 01.067.011.04.04 0 01.02.014.265.265 0 01.012.044C.111.105.12.148.137.22a1.982 1.982 0 00.02.119l.01.06.012.063.002.02C.195.548.202.591.202.61A.02.02 0 01.2.618a.056.056 0 01-.025.007L.162.626H.126L.118.624c-.003 0-.008 0-.015.002A.11.11 0 00.109.65L.167.646a1.768 1.768 0 01.165.001.22.22 0 00.12-.018L.488.61A.242.242 0 00.523.578.17.17 0 00.558.443L.546.4a.213.213 0 00-.02-.038A.12.12 0 00.502.34.302.302 0 00.426.29.15.15 0 00.382.278.905.905 0 00.33.272a.336.336 0 00-.072.012v.003L.259.3A.875.875 0 01.33.3a.17.17 0 01.051.015.246.246 0 01.059.044.177.177 0 01.037.06c.007.018.01.04.01.065 0 .02-.005.04-.015.06A.166.166 0 01.438.59.128.128 0 01.39.617a.235.235 0 01-.114.006.231.231 0 01-.01-.044.69.69 0 00-.004-.026L.218.307.192.182A.645.645 0 00.18.108.194.194 0 00.174.082.113.113 0 01.17.052c0-.005.003-.01.008-.014A.083.083 0 01.212.03.118.118 0 00.25.022V.01L.249 0A.816.816 0 00.19.004L.095.006A.885.885 0 010 0v.02z"/></symbol><symbol id="q"><path d="M.003.017a.408.408 0 00.069.01L.086.03a.027.027 0 01.01.006.106.106 0 01.013.026l.049.127a.63.63 0 01.02.055.62.62 0 00.02.06.15.15 0 00.005.017L.25.447a49.863 49.863 0 00.055.168A.5.5 0 01.206.59a.037.037 0 00-.013.003V.6C.192.603.194.607.2.61a.43.43 0 00.113.035C.33.685.34.713.342.728c.005.02.01.033.016.04L.371.77h.02C.397.761.4.756.4.753L.397.747a.276.276 0 00-.016-.05.782.782 0 01-.015-.044.525.525 0 00.052 0H.42A.125.125 0 00.475.64.127.127 0 00.532.587.155.155 0 00.55.51.216.216 0 00.538.44.326.326 0 00.44.3.212.212 0 00.38.265a.305.305 0 00-.076-.02.14.14 0 00-.03.003.266.266 0 00-.038.012A1.883 1.883 0 01.157.053a.055.055 0 01-.005-.02V.03L.158.025A.137.137 0 01.189.02.265.265 0 00.221.017.023.023 0 01.228.013L.23.005C.23.004.23.002.228 0a.615.615 0 01-.041 0H.175l-.09.003A.188.188 0 01.048 0a.525.525 0 01-.03.001H0v.004l.003.012M.409.32a.312.312 0 01.084.193.193.193 0 01-.007.05.052.052 0 01-.014.024.098.098 0 01-.03.022.15.15 0 01-.06.01H.357A3.467 3.467 0 00.303.461L.263.345a.153.153 0 01-.01-.042c0-.01.004-.019.01-.024a.065.065 0 01.04-.01C.32.268.335.27.35.276a.361.361 0 01.06.043z"/></symbol><symbol id="r"><path d="M.03.092C.047.092.06.08.07.055A.064.064 0 01.085.03.025.025 0 01.104.024c.014 0 .027.006.04.02.01.01.014.024.014.044 0 .016-.005.04-.016.07a.352.352 0 00-.024.107c0 .038.01.07.03.1.02.029.053.043.096.043A.063.063 0 00.29.393.048.048 0 00.305.356.035.035 0 00.297.333a.024.024 0 00-.018-.01C.264.324.252.332.24.345A.133.133 0 01.217.37.042.042 0 01.2.372.032.032 0 01.175.36a.042.042 0 01-.01-.028.38.38 0 01.023-.11.375.375 0 00.023-.11A.098.098 0 00.196.06.123.123 0 00.148.018.137.137 0 00.082 0C.054 0 .034.006.02.018A.054.054 0 000 .06c0 .01.003.017.008.023.006.006.013.01.022.01z"/></symbol><symbol id="s"><path d="M0 .016a.782.782 0 01.058.04c.017.015.03.03.04.046.01.015.014.029.014.041C.112.151.107.16.097.171.082.188.075.203.075.216a.08.08 0 00.018.05C.1.274.11.28.12.28S.143.274.153.26a.09.09 0 00.02-.058.19.19 0 00-.044-.107A.296.296 0 00.006 0L0 .016z"/></symbol><symbol id="t"><path d="M0 .001v.017c.05.006.077.01.083.013a.015.015 0 01.006.006c.004.005.008.02.014.045l.035.191.05.25a.694.694 0 00.017.08c0 .006-.003.01-.01.013A.177.177 0 01.14.624a.152.152 0 00-.034.004v.006c0 .003 0 .007.003.012a1.806 1.806 0 01.121 0L.324.645h.074L.421.644h.053a.24.24 0 00.149-.05A.249.249 0 00.68.533.241.241 0 00.717.408.325.325 0 00.69.288.414.414 0 00.617.166.445.445 0 00.38.021.56.56 0 00.243.002l-.09.001L.106 0A2.48 2.48 0 000 .001m.277.618A2.211 2.211 0 00.241.431L.196.2A2.186 2.186 0 00.183.144a.344.344 0 01-.015-.08c0-.015.005-.025.015-.032.01-.006.037-.01.082-.01A.585.585 0 01.41.06a.349.349 0 01.154.134.398.398 0 01.07.206c0 .039-.01.074-.029.107a.214.214 0 01-.064.075.23.23 0 01-.102.034.86.86 0 01-.113.009.201.201 0 01-.049-.005z"/></symbol><symbol id="u"><path d="M.319.367l.053.168A.767.767 0 01.394.62C.394.623.39.627.387.631a.12.12 0 01-.044.017l-.01.003.003.014c.056 0 .093.004.11.011h.007L.465.676A.669.669 0 00.46.655V.652L.42.53.37.375a.754.754 0 01-.017-.06.512.512 0 00-.015-.052L.27.055.271.052c.011.002.041.03.09.083A.028.028 0 00.371.126a.392.392 0 00-.09-.099C.256.01.238 0 .226 0l-.01.002A.015.015 0 00.212.01c0 .01.006.033.017.068l.023.077a.668.668 0 01-.039-.04.517.517 0 00-.102-.09A.13.13 0 00.042 0a.031.031 0 00-.026.014A.097.097 0 000 .073C0 .104.007.137.021.17A.615.615 0 00.13.333.265.265 0 00.2.385a.14.14 0 00.06.016.07.07 0 00.037-.01.079.079 0 00.023-.024M.096.05C.109.05.124.056.14.068A.404.404 0 01.29.266a.38.38 0 01.017.065c0 .01-.004.02-.013.03C.285.37.278.375.271.375A.104.104 0 01.227.362.195.195 0 01.173.32.687.687 0 01.074.154.174.174 0 01.06.094c0-.013.003-.024.01-.032A.035.035 0 01.096.05z"/></symbol><symbol id="v"><path d="M.077.04A.052.052 0 01.095.027.066.066 0 01.121.023c.017 0 .037.005.06.015a.399.399 0 01.124.098A.224.224 0 01.343.2c.01.027.018.06.023.1a.83.83 0 01.006.197.3.3 0 01-.008.064.05.05 0 01-.013.024.016.016 0 01-.012.004.025.025 0 01-.02-.01A.24.24 0 01.287.5H.282C.28.499.275.5.27.504c.011.043.02.07.024.08.01.02.02.035.027.043.004.005.012.01.022.015h.012C.375.643.39.63.401.607A.335.335 0 00.424.468 1.016 1.016 0 00.407.283a.722.722 0 01-.01-.049.435.435 0 01.09.174C.5.439.507.47.512.502a.366.366 0 01.004.097.06.06 0 00.009.036C.527.64.533.641.54.641.549.641.556.64.56.634.564.63.566.622.566.612A.6.6 0 00.538.495a.952.952 0 00-.079-.2.93.93 0 00-.142-.188.363.363 0 00-.113-.081A.263.263 0 00.102 0c-.04 0-.066.005-.08.015C.006.025 0 .035 0 .045 0 .05.002.057.007.062c.005.005.01.007.017.007.01 0 .02-.003.03-.007A.126.126 0 00.076.04z"/></symbol><symbol id="w"><path d="M0 .054C0 .068.005.08.016.09c.01.011.023.016.037.016A.046.046 0 00.087.092.054.054 0 00.102.054.053.053 0 00.086.016.047.047 0 00.051 0a.048.048 0 00-.036.016A.054.054 0 000 .054z"/></symbol><use xlink:href="#n" transform="matrix(14 0 0 -14 217.797 163.666)"/><use xlink:href="#o" transform="matrix(14 0 0 -14 225.661 163.68)"/><use xlink:href="#h" transform="matrix(14 0 0 -14 230.264 163.515)"/><use xlink:href="#p" transform="matrix(14 0 0 -14 234.367 163.604)"/><use xlink:href="#o" transform="matrix(14 0 0 -14 242.646 163.68)"/><use xlink:href="#q" transform="matrix(14 0 0 -14 245.273 167.05)"/><use xlink:href="#r" transform="matrix(14 0 0 -14 253.72 163.638)"/><use xlink:href="#s" transform="matrix(14 0 0 -14 257.262 165.764)"/><use xlink:href="#h" transform="matrix(14 0 0 -14 260.985 163.515)"/><use xlink:href="#p" transform="matrix(14 0 0 -14 265.089 163.604)"/><use xlink:href="#g" transform="matrix(14 0 0 -14 272.604 163.686)"/><use xlink:href="#q" transform="matrix(14 0 0 -14 276.204 167.05)"/><use xlink:href="#e" transform="matrix(14 0 0 -14 284.81 163.68)"/><use xlink:href="#s" transform="matrix(14 0 0 -14 287.675 165.764)"/><use xlink:href="#h" transform="matrix(14 0 0 -14 291.399 163.515)"/><use xlink:href="#p" transform="matrix(14 0 0 -14 295.502 163.604)"/><use xlink:href="#g" transform="matrix(14 0 0 -14 303.017 163.686)"/><use xlink:href="#q" transform="matrix(14 0 0 -14 306.618 167.05)"/><use xlink:href="#g" transform="matrix(14 0 0 -14 315.236 163.686)"/><use xlink:href="#s" transform="matrix(14 0 0 -14 320.567 165.764)"/><use xlink:href="#h" transform="matrix(14 0 0 -14 324.29 163.515)"/><use xlink:href="#t" transform="matrix(14 0 0 -14 328.469 163.604)"/><use xlink:href="#g" transform="matrix(14 0 0 -14 339.38 163.686)"/><use xlink:href="#u" transform="matrix(14 0 0 -14 345.58 163.796)"/><use xlink:href="#s" transform="matrix(14 0 0 -14 350.82 165.764)"/><use xlink:href="#h" transform="matrix(14 0 0 -14 354.544 163.515)"/><use xlink:href="#t" transform="matrix(14 0 0 -14 358.723 163.604)"/><use xlink:href="#g" transform="matrix(14 0 0 -14 369.635 163.686)"/><use xlink:href="#u" transform="matrix(14 0 0 -14 375.833 163.796)"/><use xlink:href="#u" transform="matrix(14 0 0 -14 381.943 163.796)"/><use xlink:href="#v" transform="matrix(14 0 0 -14 384.416 166.92)"/><use xlink:href="#w" transform="matrix(14 0 0 -14 392.742 163.714)"/><use xlink:href="#h" transform="matrix(14 0 0 -14 395.646 163.515)"/></g><g data-name="P"><symbol id="x"><path d="M0 .018v.004c0 .007.002.012.005.016.022.002.039.005.05.01a.048.048 0 01.02.011.165.165 0 01.024.039c.01.02.024.055.04.106L.183.33l.013.04.06.164.022.062.005.02c0 .01-.004.016-.012.02a.172.172 0 01-.049.01A4.859 4.859 0 00.175.644H.17l-.004.02a.412.412 0 00.04 0l.042.002A.778.778 0 00.344.662.014.014 0 00.348.656a.224.224 0 00.01-.041l.014-.08A3.019 3.019 0 00.407.328C.417.282.424.247.427.224a3.296 3.296 0 01.018-.1l.04.063.057.105.104.181.022.038c.026.05.056.1.089.153L.82.662h.023L.9.665h.01L.907.646A.244.244 0 00.872.64.16.16 0 01.827.625.032.032 0 01.813.607L.772.368.727.114V.11A.554.554 0 01.724.068L.723.063.724.057a.078.078 0 01.017-.01.34.34 0 01.051-.01A.354.354 0 00.82.034V.03c0-.003 0-.006-.002-.01a.738.738 0 00-.145.004A1.674 1.674 0 01.578.021L.56.022A.026.026 0 00.559.03.03.03 0 00.562.04a.27.27 0 00.019.001.16.16 0 01.06.01.03.03 0 01.012.013c.004.008.009.03.014.065l.02.115.023.133c.004.025.008.05.01.073A1.044 1.044 0 01.74.565.494.494 0 01.743.6 9.883 9.883 0 01.575.31L.555.27A7.124 7.124 0 01.404 0h-.02c0 .016 0 .031-.002.045a1.43 1.43 0 01-.022.156L.332.36a.362.362 0 00-.005.036 1.806 1.806 0 00-.022.118L.292.576A.102.102 0 01.286.56L.234.41.203.316A1.26 1.26 0 01.168.209 1.562 1.562 0 00.131.093.067.067 0 01.126.072.02.02 0 01.133.057.115.115 0 01.186.038.262.262 0 00.223.034.01.01 0 00.23.029.05.05 0 00.227.013L.192.014.17.015H.162A.8.8 0 010 .018z"/></symbol><symbol id="y"><path d="M.067.192a.262.262 0 01-.016-.09C.051.08.056.063.067.05A.033.033 0 01.095.036.04.04 0 01.114.04a.122.122 0 01.03.022.219.219 0 01.05.08h.008A.1.1 0 00.215.14.231.231 0 00.143.033.11.11 0 00.068 0a.054.054 0 00-.044.023A.135.135 0 000 .108a.326.326 0 00.023.11c.01.024.021.046.033.066l.038.054.04.043c.012.01.024.017.035.022a.088.088 0 00.036.008c.016 0 .03-.007.042-.02a.072.072 0 00.018-.05.111.111 0 00-.014-.053.113.113 0 00-.03-.038L.181.223a.89.89 0 00-.113-.03m.008.024c.01 0 .026.004.049.012a.256.256 0 01.047.027.151.151 0 01.05.065.117.117 0 01.008.042c0 .01-.003.018-.008.024a.025.025 0 01-.019.009C.194.396.183.391.172.381A.318.318 0 01.108.292.41.41 0 01.076.217z"/></symbol><symbol id="z"><path d="M.142.364H.062A.07.07 0 00.07.387C.117.39.145.391.153.392A.943.943 0 01.211.53.186.186 0 00.258.528L.26.521A.786.786 0 00.215.414.193.193 0 01.207.391.173.173 0 01.224.39H.297C.297.38.295.37.292.363A.537.537 0 00.22.36.107.107 0 01.191.355L.111.166A3.796 3.796 0 01.064.06L.068.053h.007c.008 0 .02.005.032.016A.587.587 0 01.19.154a.07.07 0 00.015-.01.409.409 0 00-.157-.14A.062.062 0 00.024 0C.016 0 .01.002.006.005.002.01 0 .014 0 .02c0 .01.008.031.024.066l.02.045.075.174c.01.022.017.042.023.059z"/></symbol><symbol id="A"><path d="M.013.069a.04.04 0 00.015.004c.01 0 .02-.007.03-.022a.099.099 0 01.01-.016.037.037 0 01.026-.013c.014 0 .03.008.051.024a.27.27 0 01.047.077.847.847 0 01.04.107L.28.395l.009.033.032.115c.009.03.015.05.02.062a.26.26 0 01-.029 0H.254l.003.024L.28.63.35.633C.364.68.38.726.4.768c.011.025.028.05.049.075.016.02.035.035.058.047.01.006.024.008.041.008.021 0 .038-.005.05-.017C.61.871.618.86.618.847a.03.03 0 00-.008-.02.024.024 0 00-.018-.01.036.036 0 00-.023.01.048.048 0 00-.014.025.037.037 0 01-.01.018.026.026 0 01-.016.005.036.036 0 01-.017-.004.115.115 0 01-.033-.03.251.251 0 01-.027-.047.788.788 0 01-.05-.16L.414.631.46.633h.015V.624A.07.07 0 00.474.607L.393.604.375.55.335.402A.546.546 0 00.318.35L.282.233a.77.77 0 00-.048-.11.327.327 0 00-.058-.079A.173.173 0 00.12.008.126.126 0 00.073 0C.045 0 .027.004.016.013A.038.038 0 000 .043c0 .012.004.02.013.026z"/></symbol><use xlink:href="#x" transform="matrix(14 0 0 -14 211.17 202.182)"/><use xlink:href="#g" transform="matrix(14 0 0 -14 223.998 202.086)"/><use xlink:href="#m" transform="matrix(14 0 0 -14 230.202 202.114)"/><use xlink:href="#v" transform="matrix(14 0 0 -14 232.947 205.32)"/><use xlink:href="#h" transform="matrix(14 0 0 -14 241.054 201.915)"/><use xlink:href="#l" transform="matrix(14 0 0 -14 245.313 202.107)"/><use xlink:href="#g" transform="matrix(14 0 0 -14 254.672 202.086)"/><use xlink:href="#m" transform="matrix(14 0 0 -14 260.876 202.114)"/><use xlink:href="#v" transform="matrix(14 0 0 -14 263.62 205.32)"/><use xlink:href="#h" transform="matrix(14 0 0 -14 271.728 201.915)"/><use xlink:href="#d" transform="matrix(14 0 0 -14 276.138 202.148)"/><use xlink:href="#g" transform="matrix(14 0 0 -14 282.434 202.086)"/><use xlink:href="#q" transform="matrix(14 0 0 -14 286.026 205.45)"/><use xlink:href="#q" transform="matrix(14 0 0 -14 292.128 205.45)"/><use xlink:href="#v" transform="matrix(14 0 0 -14 297.19 205.32)"/><use xlink:href="#h" transform="matrix(14 0 0 -14 305.298 201.915)"/><use xlink:href="#k" transform="matrix(14 0 0 -14 309.994 202.08)"/><use xlink:href="#y" transform="matrix(14 0 0 -14 314.92 202.141)"/><use xlink:href="#z" transform="matrix(14 0 0 -14 319.255 202.038)"/><use xlink:href="#i" transform="matrix(14 0 0 -14 323.166 202.093)"/><use xlink:href="#k" transform="matrix(14 0 0 -14 329.807 202.08)"/><use xlink:href="#m" transform="matrix(14 0 0 -14 334.84 202.114)"/><use xlink:href="#r" transform="matrix(14 0 0 -14 340.962 202.038)"/><use xlink:href="#h" transform="matrix(14 0 0 -14 345.105 201.915)"/><use xlink:href="#o" transform="matrix(14 0 0 -14 349.802 202.08)"/><use xlink:href="#A" transform="matrix(14 0 0 -14 351.839 205.504)"/><use xlink:href="#h" transform="matrix(14 0 0 -14 361.029 201.915)"/><use xlink:href="#z" transform="matrix(14 0 0 -14 365.486 202.038)"/><use xlink:href="#d" transform="matrix(14 0 0 -14 369.355 202.148)"/><use xlink:href="#y" transform="matrix(14 0 0 -14 375.83 202.141)"/><use xlink:href="#h" transform="matrix(14 0 0 -14 379.624 201.915)"/><use xlink:href="#u" transform="matrix(14 0 0 -14 384.163 202.196)"/><use xlink:href="#g" transform="matrix(14 0 0 -14 390.175 202.086)"/><use xlink:href="#v" transform="matrix(14 0 0 -14 392.729 205.32)"/><use xlink:href="#h" transform="matrix(14 0 0 -14 400.836 201.915)"/></g><g data-name="P"><symbol id="B"><path d="M.186.645l.002.014c.04.003.07.004.09.004h.021V.656L.284.61.25.519.183.347a4.856 4.856 0 00-.059-.15L.108.155A.377.377 0 00.08.092C.07.075.064.062.064.053L.066.045c.011.001.025.009.042.022.025.02.047.044.067.074A.083.083 0 00.19.143h.006a.253.253 0 00-.04-.059.277.277 0 00-.104-.077A.085.085 0 00.017 0C.012 0 .008.001.004.004A.015.015 0 000 .016C0 .03.026.098.078.217c.016.036.033.078.05.124.03.082.053.14.07.174a.574.574 0 01.036.1c0 .006-.002.01-.006.014a.11.11 0 01-.042.016z"/></symbol><symbol id="C"><path d="M.032.276h-.02c.019.05.044.09.076.122.015.016.03.023.045.023A.032.032 0 00.157.41a.043.043 0 00.01-.032.207.207 0 00-.004-.044.57.57 0 00-.024-.07L.095.152.072.096.065.076A.125.125 0 01.055.04c0-.002 0-.006.003-.013A.022.022 0 01.066.025L.098.04a.73.73 0 01.074.063.79.79 0 01.069.084.209.209 0 01.029.058c.005.014.007.029.007.043a.52.52 0 01-.01.085.06.06 0 00.01.038c.007.007.013.011.02.011C.302.422.31.418.316.41a.057.057 0 00.01-.037.322.322 0 00-.035-.137.553.553 0 00-.194-.218A.115.115 0 00.036 0a.066.066 0 00-.023.005C.004.013 0 .02 0 .028c0 .013.004.03.012.049.035.086.066.167.093.243a.115.115 0 01.008.035C.113.361.11.366.108.37.106.373.104.375.101.375.093.375.085.369.077.357a.36.36 0 01-.045-.08z"/></symbol><symbol id="D"><path d="M.184.223a.389.389 0 00-.048.043.017.017 0 00-.004.01c0 .006.002.01.005.014a.08.08 0 00.025.014.473.473 0 01.065.038.47.47 0 01-.023.026L.188.385A.138.138 0 00.172.45a.267.267 0 00.042.125.197.197 0 00.04.044c.009.007.02.013.033.017.02.007.037.011.05.011a.112.112 0 00.05-.012.084.084 0 01.038-.008l.02.001A.156.156 0 00.46.63L.472.629A.24.24 0 00.474.608.02.02 0 00.47.598.103.103 0 00.46.597a5.292 5.292 0 00-.05.01.156.156 0 00.013-.065.213.213 0 00-.049-.134.19.19 0 00-.112-.075A.124.124 0 01.207.31.019.019 0 01.199.294c0-.01.008-.022.025-.036L.282.23A.357.357 0 00.395.171C.415.155.424.132.424.104a.073.073 0 00-.012-.04.114.114 0 00-.038-.035A.333.333 0 00.24 0a.514.514 0 00-.096.006.334.334 0 00-.085.028.14.14 0 00-.049.04.049.049 0 00-.01.029C0 .117.007.13.02.141c.02.015.074.042.164.082m.072.131A.086.086 0 01.3.373a.349.349 0 01.078.199c0 .017-.004.03-.013.04a.041.041 0 01-.032.015A.06.06 0 01.29.608.271.271 0 01.242.52a.332.332 0 01-.028-.11c0-.014.004-.026.012-.036a.048.048 0 01.03-.019M.07.066A.165.165 0 01.142.03.261.261 0 01.24.02c.03 0 .057.005.083.014.027.01.044.02.053.03a.038.038 0 01.008.025c0 .018-.01.036-.031.054a.376.376 0 01-.096.046L.204.21A.55.55 0 01.077.143.11.11 0 01.06.126.053.053 0 01.055.103.05.05 0 01.069.066z"/></symbol><use xlink:href="#x" transform="matrix(14 0 0 -14 261.46 221.382)"/><use xlink:href="#g" transform="matrix(14 0 0 -14 274.288 221.286)"/><use xlink:href="#v" transform="matrix(14 0 0 -14 276.842 224.52)"/><use xlink:href="#h" transform="matrix(14 0 0 -14 284.95 221.115)"/><use xlink:href="#v" transform="matrix(14 0 0 -14 285.852 224.52)"/><use xlink:href="#o" transform="matrix(14 0 0 -14 294.543 221.28)"/><use xlink:href="#i" transform="matrix(14 0 0 -14 299.67 221.293)"/><use xlink:href="#h" transform="matrix(14 0 0 -14 305.532 221.115)"/><use xlink:href="#B" transform="matrix(14 0 0 -14 309.948 221.3)"/><use xlink:href="#e" transform="matrix(14 0 0 -14 313.452 221.28)"/><use xlink:href="#C" transform="matrix(14 0 0 -14 317.462 221.327)"/><use xlink:href="#y" transform="matrix(14 0 0 -14 322.668 221.341)"/><use xlink:href="#h" transform="matrix(14 0 0 -14 326.462 221.115)"/><use xlink:href="#B" transform="matrix(14 0 0 -14 330.878 221.3)"/><use xlink:href="#o" transform="matrix(14 0 0 -14 334.642 221.28)"/><use xlink:href="#m" transform="matrix(14 0 0 -14 339.872 221.314)"/><use xlink:href="#D" transform="matrix(14 0 0 -14 344.332 224.568)"/><use xlink:href="#h" transform="matrix(14 0 0 -14 350.57 221.115)"/></g><g data-name="P"><symbol id="E"><path d="M.104.037L.118.05l.007.006.114.114a.364.364 0 00.026.025.335.335 0 00.052.052l.027.025c.046.042.106.1.181.175l.106.103a.226.226 0 00.02.02 1.883 1.883 0 00.074.08.197.197 0 00.029 0V.644A.788.788 0 01.751.585.389.389 0 01.747.53L.741.44.738.389.72.16V.117A.207.207 0 01.718.108L.717.066V.06L.716.04C.718.037.726.034.736.033A.279.279 0 00.802.02V.013L.8.001a.808.808 0 01-.021.004l-.06.004L.674.008A.632.632 0 00.605.003L.593 0 .58.002A.476.476 0 00.554 0C.549 0 .543 0 .536.002l.001.014L.57.02a.266.266 0 01.063.01h.003a.027.027 0 01.007.01A1.197 1.197 0 01.66.248H.63L.459.244.36.241A.16.16 0 00.35.24.09.09 0 01.333.226.195.195 0 00.308.204a1.01 1.01 0 00-.064-.06.5.5 0 01-.03-.03L.178.076a.134.134 0 00-.02-.018.28.28 0 00-.007-.01V.035a.09.09 0 01.037-.01.755.755 0 00.056-.008A.056.056 0 00.24 0L.15.007.081.003.06.002H.055C.052.002.046.002.038 0H.014C.01 0 .006 0 .001.002A.082.082 0 000 .018l.006.003.054.004.033.006a.103.103 0 01.01.006m.37.228H.5l.062.002.08.005a.241.241 0 00.02.002 1.297 1.297 0 01.006.05l.009.142.007.092A.18.18 0 01.656.535.19.19 0 01.628.513L.516.405.496.387A.228.228 0 00.474.365a.29.29 0 01-.02-.02A.128.128 0 00.44.334.146.146 0 01.425.32.11.11 0 01.411.306.612.612 0 01.375.268C.38.265.392.263.412.263h.025l.036.002z"/></symbol><use xlink:href="#E" transform="matrix(14 0 0 -14 264.45 240.432)"/><use xlink:href="#v" transform="matrix(14 0 0 -14 272.739 243.72)"/><use xlink:href="#i" transform="matrix(14 0 0 -14 281.372 240.493)"/><use xlink:href="#r" transform="matrix(14 0 0 -14 287.601 240.438)"/><use xlink:href="#d" transform="matrix(14 0 0 -14 292.228 240.548)"/><use xlink:href="#l" transform="matrix(14 0 0 -14 298.325 240.507)"/><use xlink:href="#g" transform="matrix(14 0 0 -14 307.689 240.486)"/><use xlink:href="#m" transform="matrix(14 0 0 -14 313.898 240.514)"/><use xlink:href="#j" transform="matrix(14 0 0 -14 320.6 240.52)"/><use xlink:href="#d" transform="matrix(14 0 0 -14 326.262 240.548)"/><use xlink:href="#g" transform="matrix(14 0 0 -14 332.55 240.486)"/><use xlink:href="#j" transform="matrix(14 0 0 -14 339.06 240.52)"/><use xlink:href="#w" transform="matrix(14 0 0 -14 344.273 240.514)"/><use xlink:href="#h" transform="matrix(14 0 0 -14 347.187 240.315)"/></g><g data-name="P"><symbol id="F"><path d="M.245.324a.072.072 0 00-.011.01.15.15 0 00-.01.019.078.078 0 01-.01.02.018.018 0 01-.012.004C.191.377.18.37.166.357A.44.44 0 01.092.228.406.406 0 01.056.082C.056.067.058.057.062.05A.017.017 0 01.076.044c.013 0 .027.007.042.02.02.02.042.045.063.077l.014.002h.007A.231.231 0 00.175.096.294.294 0 00.107.021.103.103 0 00.051 0a.04.04 0 00-.035.016C.006.03 0 .052 0 .083a.428.428 0 00.074.204C.1.32.118.345.134.36A.21.21 0 00.19.4C.206.407.22.41.234.41A.047.047 0 00.27.393.06.06 0 00.286.352.032.032 0 00.278.329.023.023 0 00.261.32a.054.054 0 00-.016.003z"/></symbol><use xlink:href="#x" transform="matrix(14 0 0 -14 85.376 259.782)"/><use xlink:href="#g" transform="matrix(14 0 0 -14 98.203 259.686)"/><use xlink:href="#l" transform="matrix(14 0 0 -14 104.113 259.707)"/><use xlink:href="#g" transform="matrix(14 0 0 -14 113.472 259.686)"/><use xlink:href="#h" transform="matrix(14 0 0 -14 119.04 259.515)"/><use xlink:href="#e" transform="matrix(14 0 0 -14 123.477 259.68)"/><use xlink:href="#r" transform="matrix(14 0 0 -14 126.943 259.638)"/><use xlink:href="#h" transform="matrix(14 0 0 -14 131.085 259.515)"/><use xlink:href="#D" transform="matrix(14 0 0 -14 133.704 262.968)"/><use xlink:href="#e" transform="matrix(14 0 0 -14 140.461 259.68)"/><use xlink:href="#C" transform="matrix(14 0 0 -14 144.471 259.727)"/><use xlink:href="#e" transform="matrix(14 0 0 -14 149.486 259.68)"/><use xlink:href="#m" transform="matrix(14 0 0 -14 153.225 259.714)"/><use xlink:href="#D" transform="matrix(14 0 0 -14 157.686 262.968)"/><use xlink:href="#h" transform="matrix(14 0 0 -14 163.924 259.515)"/><use xlink:href="#v" transform="matrix(14 0 0 -14 164.826 262.92)"/><use xlink:href="#o" transform="matrix(14 0 0 -14 173.518 259.68)"/><use xlink:href="#i" transform="matrix(14 0 0 -14 178.645 259.693)"/><use xlink:href="#h" transform="matrix(14 0 0 -14 184.507 259.515)"/><use xlink:href="#g" transform="matrix(14 0 0 -14 188.957 259.686)"/><use xlink:href="#h" transform="matrix(14 0 0 -14 194.525 259.515)"/><use xlink:href="#F" transform="matrix(14 0 0 -14 199.119 259.666)"/><use xlink:href="#o" transform="matrix(14 0 0 -14 203.433 259.68)"/><use xlink:href="#A" transform="matrix(14 0 0 -14 205.47 263.104)"/><use xlink:href="#A" transform="matrix(14 0 0 -14 209.303 263.104)"/><use xlink:href="#y" transform="matrix(14 0 0 -14 216.222 259.741)"/><use xlink:href="#y" transform="matrix(14 0 0 -14 220.727 259.741)"/><use xlink:href="#h" transform="matrix(14 0 0 -14 224.521 259.515)"/><use xlink:href="#o" transform="matrix(14 0 0 -14 229.218 259.68)"/><use xlink:href="#k" transform="matrix(14 0 0 -14 234.591 259.68)"/><use xlink:href="#h" transform="matrix(14 0 0 -14 238.457 259.515)"/><use xlink:href="#z" transform="matrix(14 0 0 -14 242.914 259.638)"/><use xlink:href="#y" transform="matrix(14 0 0 -14 247.002 259.741)"/><use xlink:href="#g" transform="matrix(14 0 0 -14 251.33 259.686)"/><use xlink:href="#h" transform="matrix(14 0 0 -14 256.898 259.515)"/><use xlink:href="#l" transform="matrix(14 0 0 -14 261.157 259.707)"/><use xlink:href="#i" transform="matrix(14 0 0 -14 270.515 259.693)"/><use xlink:href="#D" transform="matrix(14 0 0 -14 275.079 262.968)"/><use xlink:href="#s" transform="matrix(14 0 0 -14 281.939 261.764)"/><use xlink:href="#h" transform="matrix(14 0 0 -14 285.668 259.515)"/><use xlink:href="#g" transform="matrix(14 0 0 -14 290.118 259.686)"/><use xlink:href="#h" transform="matrix(14 0 0 -14 295.686 259.515)"/><use xlink:href="#j" transform="matrix(14 0 0 -14 300.54 259.72)"/><use xlink:href="#e" transform="matrix(14 0 0 -14 306.224 259.68)"/><use xlink:href="#D" transform="matrix(14 0 0 -14 308.03 262.968)"/><use xlink:href="#h" transform="matrix(14 0 0 -14 314.267 259.515)"/><use xlink:href="#z" transform="matrix(14 0 0 -14 318.724 259.638)"/><use xlink:href="#d" transform="matrix(14 0 0 -14 322.594 259.748)"/><use xlink:href="#e" transform="matrix(14 0 0 -14 328.876 259.68)"/><use xlink:href="#F" transform="matrix(14 0 0 -14 332.657 259.666)"/><use xlink:href="#f" transform="matrix(14 0 0 -14 336.46 259.844)"/><use xlink:href="#h" transform="matrix(14 0 0 -14 343.72 259.515)"/><use xlink:href="#j" transform="matrix(14 0 0 -14 348.574 259.72)"/><use xlink:href="#o" transform="matrix(14 0 0 -14 354.518 259.68)"/><use xlink:href="#o" transform="matrix(14 0 0 -14 359.891 259.68)"/><use xlink:href="#f" transform="matrix(14 0 0 -14 364.936 259.844)"/><use xlink:href="#s" transform="matrix(14 0 0 -14 371.95 261.764)"/><use xlink:href="#h" transform="matrix(14 0 0 -14 375.68 259.515)"/><use xlink:href="#l" transform="matrix(14 0 0 -14 379.938 259.707)"/><use xlink:href="#g" transform="matrix(14 0 0 -14 389.297 259.686)"/><use xlink:href="#m" transform="matrix(14 0 0 -14 395.5 259.714)"/><use xlink:href="#v" transform="matrix(14 0 0 -14 398.246 262.92)"/><use xlink:href="#h" transform="matrix(14 0 0 -14 406.353 259.515)"/><use xlink:href="#r" transform="matrix(14 0 0 -14 410.633 259.638)"/><use xlink:href="#q" transform="matrix(14 0 0 -14 412.8 263.05)"/><use xlink:href="#e" transform="matrix(14 0 0 -14 421.397 259.68)"/><use xlink:href="#k" transform="matrix(14 0 0 -14 425.28 259.68)"/><use xlink:href="#g" transform="matrix(14 0 0 -14 429.679 259.686)"/><use xlink:href="#B" transform="matrix(14 0 0 -14 435.746 259.7)"/><use xlink:href="#h" transform="matrix(14 0 0 -14 438.73 259.515)"/><use xlink:href="#q" transform="matrix(14 0 0 -14 440.671 263.05)"/><use xlink:href="#g" transform="matrix(14 0 0 -14 449.281 259.686)"/><use xlink:href="#u" transform="matrix(14 0 0 -14 455.472 259.796)"/><use xlink:href="#r" transform="matrix(14 0 0 -14 461.313 259.638)"/><use xlink:href="#h" transform="matrix(14 0 0 -14 465.456 259.515)"/><use xlink:href="#g" transform="matrix(14 0 0 -14 469.906 259.686)"/><use xlink:href="#m" transform="matrix(14 0 0 -14 476.11 259.714)"/><use xlink:href="#u" transform="matrix(14 0 0 -14 482.492 259.796)"/><use xlink:href="#h" transform="matrix(14 0 0 -14 487.97 259.515)"/><use xlink:href="#g" transform="matrix(14 0 0 -14 492.421 259.686)"/><use xlink:href="#h" transform="matrix(14 0 0 -14 497.99 259.515)"/><use xlink:href="#F" transform="matrix(14 0 0 -14 502.583 259.666)"/><use xlink:href="#g" transform="matrix(14 0 0 -14 506.65 259.686)"/><use xlink:href="#k" transform="matrix(14 0 0 -14 512.998 259.68)"/><use xlink:href="#u" transform="matrix(14 0 0 -14 517.486 259.796)"/><use xlink:href="#w" transform="matrix(14 0 0 -14 523.54 259.714)"/><use xlink:href="#h" transform="matrix(14 0 0 -14 526.448 259.515)"/><use xlink:href="#h" transform="matrix(14 0 0 -14 530.365 259.515)"/></g><g data-name="P"><symbol id="G"><path d="M.002.018C.011.018.018.02.025.02l.03.006a.09.09 0 01.043.014l.006.006.013.119.018.187C.145.436.15.49.15.515c0 .008.002.019.004.03L.158.59C.158.594.156.6.152.603a.049.049 0 01-.02.01.965.965 0 00-.064.007.023.023 0 00-.004.009.02.02 0 00.003.008 2.378 2.378 0 00.12 0l.147.005h.02A.215.215 0 00.426.634.13.13 0 00.511.556.144.144 0 00.52.512.143.143 0 00.484.42.38.38 0 00.367.335 12.276 12.276 0 01.52.094a.18.18 0 01.04-.05A.102.102 0 01.61.027.567.567 0 00.644.02L.642 0c-.013 0-.03 0-.05.002A1.243 1.243 0 01.51.006L.439.005.409.003H.402C.4.003.397.003.395.001.39.005.388.01.388.017a.023.023 0 00.011.006c.01.002.027.003.052.003.011 0 .02.003.029.01a.264.264 0 01-.038.061 12.1 12.1 0 00-.05.077l-.094.14A.351.351 0 00.2.308L.187.178.178.087.177.068A.18.18 0 01.175.054L.177.042A.181.181 0 01.222.03.477.477 0 00.27.019a.035.035 0 000-.015.718.718 0 00-.096.003 1.662 1.662 0 01-.15-.005.25.25 0 01-.016 0 .05.05 0 00-.008 0A.08.08 0 010 .01l.002.008M.235.61L.232.603A.194.194 0 01.222.53l-.01-.08A8.758 8.758 0 00.204.347v-.01a.133.133 0 01.04-.003.33.33 0 01.048.006.188.188 0 01.142.132.155.155 0 01.009.047c0 .03-.01.055-.032.074-.022.02-.056.03-.105.03a.224.224 0 01-.071-.01z"/></symbol><use xlink:href="#G" transform="matrix(14 0 0 -14 197.006 278.79)"/><use xlink:href="#o" transform="matrix(14 0 0 -14 206.532 278.88)"/><use xlink:href="#d" transform="matrix(14 0 0 -14 211.62 278.948)"/><use xlink:href="#g" transform="matrix(14 0 0 -14 217.906 278.886)"/><use xlink:href="#m" transform="matrix(14 0 0 -14 224.112 278.914)"/><use xlink:href="#h" transform="matrix(14 0 0 -14 229.874 278.715)"/><use xlink:href="#e" transform="matrix(14 0 0 -14 234.314 278.88)"/><use xlink:href="#r" transform="matrix(14 0 0 -14 237.783 278.838)"/><use xlink:href="#h" transform="matrix(14 0 0 -14 241.914 278.715)"/><use xlink:href="#D" transform="matrix(14 0 0 -14 244.535 282.168)"/><use xlink:href="#e" transform="matrix(14 0 0 -14 251.296 278.88)"/><use xlink:href="#C" transform="matrix(14 0 0 -14 255.309 278.927)"/><use xlink:href="#e" transform="matrix(14 0 0 -14 260.326 278.88)"/><use xlink:href="#m" transform="matrix(14 0 0 -14 264.068 278.914)"/><use xlink:href="#D" transform="matrix(14 0 0 -14 268.531 282.168)"/><use xlink:href="#h" transform="matrix(14 0 0 -14 274.772 278.715)"/><use xlink:href="#v" transform="matrix(14 0 0 -14 275.678 282.12)"/><use xlink:href="#o" transform="matrix(14 0 0 -14 284.372 278.88)"/><use xlink:href="#i" transform="matrix(14 0 0 -14 289.502 278.893)"/><use xlink:href="#h" transform="matrix(14 0 0 -14 295.366 278.715)"/><use xlink:href="#g" transform="matrix(14 0 0 -14 299.82 278.886)"/><use xlink:href="#h" transform="matrix(14 0 0 -14 305.39 278.715)"/><use xlink:href="#F" transform="matrix(14 0 0 -14 309.987 278.866)"/><use xlink:href="#g" transform="matrix(14 0 0 -14 314.058 278.886)"/><use xlink:href="#k" transform="matrix(14 0 0 -14 320.408 278.88)"/><use xlink:href="#u" transform="matrix(14 0 0 -14 324.898 278.996)"/><use xlink:href="#h" transform="matrix(14 0 0 -14 330.38 278.715)"/><use xlink:href="#g" transform="matrix(14 0 0 -14 334.834 278.886)"/><use xlink:href="#m" transform="matrix(14 0 0 -14 341.04 278.914)"/><use xlink:href="#u" transform="matrix(14 0 0 -14 347.424 278.996)"/><use xlink:href="#h" transform="matrix(14 0 0 -14 352.906 278.715)"/><use xlink:href="#g" transform="matrix(14 0 0 -14 357.36 278.886)"/><use xlink:href="#h" transform="matrix(14 0 0 -14 362.93 278.715)"/><use xlink:href="#r" transform="matrix(14 0 0 -14 367.213 278.838)"/><use xlink:href="#l" transform="matrix(14 0 0 -14 371.686 278.907)"/><use xlink:href="#g" transform="matrix(14 0 0 -14 381.048 278.886)"/><use xlink:href="#B" transform="matrix(14 0 0 -14 387.117 278.9)"/><use xlink:href="#B" transform="matrix(14 0 0 -14 390.603 278.9)"/><use xlink:href="#h" transform="matrix(14 0 0 -14 393.59 278.715)"/><use xlink:href="#F" transform="matrix(14 0 0 -14 398.187 278.866)"/><use xlink:href="#g" transform="matrix(14 0 0 -14 402.257 278.886)"/><use xlink:href="#k" transform="matrix(14 0 0 -14 408.608 278.88)"/><use xlink:href="#w" transform="matrix(14 0 0 -14 412.868 278.914)"/><use xlink:href="#h" transform="matrix(14 0 0 -14 415.78 278.715)"/></g><g data-name="P"><use xlink:href="#p" transform="matrix(14 0 0 -14 134.95 298.004)"/><use xlink:href="#g" transform="matrix(14 0 0 -14 142.465 298.086)"/><use xlink:href="#z" transform="matrix(14 0 0 -14 148.581 298.038)"/><use xlink:href="#e" transform="matrix(14 0 0 -14 152.486 298.08)"/><use xlink:href="#h" transform="matrix(14 0 0 -14 155.598 297.915)"/><use xlink:href="#g" transform="matrix(14 0 0 -14 160.057 298.086)"/><use xlink:href="#m" transform="matrix(14 0 0 -14 166.27 298.114)"/><use xlink:href="#u" transform="matrix(14 0 0 -14 172.66 298.196)"/><use xlink:href="#h" transform="matrix(14 0 0 -14 178.147 297.915)"/><use xlink:href="#c" transform="matrix(14 0 0 -14 182.476 298.127)"/><use xlink:href="#e" transform="matrix(14 0 0 -14 190.017 298.08)"/><use xlink:href="#z" transform="matrix(14 0 0 -14 193.67 298.038)"/><use xlink:href="#e" transform="matrix(14 0 0 -14 197.575 298.08)"/><use xlink:href="#h" transform="matrix(14 0 0 -14 200.687 297.915)"/><use xlink:href="#p" transform="matrix(14 0 0 -14 204.79 298.004)"/><use xlink:href="#g" transform="matrix(14 0 0 -14 212.305 298.086)"/><use xlink:href="#z" transform="matrix(14 0 0 -14 218.421 298.038)"/><use xlink:href="#e" transform="matrix(14 0 0 -14 222.327 298.08)"/><use xlink:href="#h" transform="matrix(14 0 0 -14 225.439 297.915)"/><use xlink:href="#g" transform="matrix(14 0 0 -14 229.897 298.086)"/><use xlink:href="#k" transform="matrix(14 0 0 -14 236.253 298.08)"/><use xlink:href="#y" transform="matrix(14 0 0 -14 241.188 298.141)"/><use xlink:href="#h" transform="matrix(14 0 0 -14 244.977 297.915)"/><use xlink:href="#D" transform="matrix(14 0 0 -14 247.604 301.368)"/><use xlink:href="#e" transform="matrix(14 0 0 -14 254.356 298.08)"/><use xlink:href="#C" transform="matrix(14 0 0 -14 258.374 298.127)"/><use xlink:href="#e" transform="matrix(14 0 0 -14 263.383 298.08)"/><use xlink:href="#m" transform="matrix(14 0 0 -14 267.13 298.114)"/><use xlink:href="#D" transform="matrix(14 0 0 -14 271.6 301.368)"/><use xlink:href="#h" transform="matrix(14 0 0 -14 277.832 297.915)"/><use xlink:href="#v" transform="matrix(14 0 0 -14 278.743 301.32)"/><use xlink:href="#o" transform="matrix(14 0 0 -14 287.443 298.08)"/><use xlink:href="#i" transform="matrix(14 0 0 -14 292.578 298.093)"/><use xlink:href="#h" transform="matrix(14 0 0 -14 298.449 297.915)"/><use xlink:href="#r" transform="matrix(14 0 0 -14 302.736 298.038)"/><use xlink:href="#d" transform="matrix(14 0 0 -14 307.366 298.148)"/><use xlink:href="#e" transform="matrix(14 0 0 -14 313.643 298.08)"/><use xlink:href="#k" transform="matrix(14 0 0 -14 317.534 298.08)"/><use xlink:href="#z" transform="matrix(14 0 0 -14 322.117 298.038)"/><use xlink:href="#r" transform="matrix(14 0 0 -14 325.864 298.038)"/><use xlink:href="#h" transform="matrix(14 0 0 -14 330.002 297.915)"/><use xlink:href="#g" transform="matrix(14 0 0 -14 334.46 298.086)"/><use xlink:href="#m" transform="matrix(14 0 0 -14 340.673 298.114)"/><use xlink:href="#u" transform="matrix(14 0 0 -14 347.063 298.196)"/><use xlink:href="#h" transform="matrix(14 0 0 -14 352.55 297.915)"/><use xlink:href="#g" transform="matrix(14 0 0 -14 357.009 298.086)"/><use xlink:href="#h" transform="matrix(14 0 0 -14 362.585 297.915)"/><use xlink:href="#q" transform="matrix(14 0 0 -14 364.535 301.45)"/><use xlink:href="#g" transform="matrix(14 0 0 -14 373.154 298.086)"/><use xlink:href="#F" transform="matrix(14 0 0 -14 379.407 298.066)"/><use xlink:href="#f" transform="matrix(14 0 0 -14 383.205 298.244)"/><use xlink:href="#h" transform="matrix(14 0 0 -14 390.473 297.915)"/><use xlink:href="#o" transform="matrix(14 0 0 -14 395.178 298.08)"/><use xlink:href="#A" transform="matrix(14 0 0 -14 397.224 301.504)"/><use xlink:href="#h" transform="matrix(14 0 0 -14 406.408 297.915)"/><use xlink:href="#d" transform="matrix(14 0 0 -14 410.826 298.148)"/><use xlink:href="#g" transform="matrix(14 0 0 -14 417.117 298.086)"/><use xlink:href="#m" transform="matrix(14 0 0 -14 423.329 298.114)"/><use xlink:href="#u" transform="matrix(14 0 0 -14 429.719 298.196)"/><use xlink:href="#f" transform="matrix(14 0 0 -14 435.657 298.244)"/><use xlink:href="#y" transform="matrix(14 0 0 -14 443.287 298.141)"/><use xlink:href="#k" transform="matrix(14 0 0 -14 447.855 298.08)"/><use xlink:href="#F" transform="matrix(14 0 0 -14 452.574 298.066)"/><use xlink:href="#d" transform="matrix(14 0 0 -14 456.609 298.148)"/><use xlink:href="#e" transform="matrix(14 0 0 -14 462.886 298.08)"/><use xlink:href="#y" transform="matrix(14 0 0 -14 466.709 298.141)"/><use xlink:href="#A" transform="matrix(14 0 0 -14 467.94 301.504)"/><use xlink:href="#w" transform="matrix(14 0 0 -14 474.9 298.114)"/><use xlink:href="#h" transform="matrix(14 0 0 -14 477.803 297.915)"/></g><g data-name="P"><symbol id="H"><path d="M0 .017a.6.6 0 00.033.006C.061.028.08.033.088.04a.034.034 0 01.01.013 3.863 3.863 0 01.08.36l.027.14.003.028A.114.114 0 01.21.599C.21.607.207.613.202.617.193.623.175.625.15.625H.132a.09.09 0 00-.02.003.203.203 0 00.005.02L.175.647.267.643l.082.004.036.002V.632A.274.274 0 00.35.626a.15.15 0 01-.049-.01A.043.043 0 01.29.599 2.453 2.453 0 01.25.425L.194.158A1.172 1.172 0 01.172.042L.174.035a.131.131 0 01.05-.01.493.493 0 00.04-.006L.265.004.258.002H.246A1.362 1.362 0 00.17 0L.083.002H.061A.805.805 0 010 0v.017z"/></symbol><symbol id="I"><path d="M.365.062L.349 0H0l.003.013C.135.14.224.225.269.271a.619.619 0 01.108.142.173.173 0 01.017.077c0 .032-.008.057-.023.073a.084.084 0 01-.065.025.128.128 0 01-.08-.025A.242.242 0 01.16.47H.135A.254.254 0 00.21.592c.033.027.07.04.11.04A.151.151 0 00.43.594.131.131 0 00.47.495.169.169 0 00.457.433.256.256 0 00.411.358a2.117 2.117 0 00-.15-.14L.086.062h.279z"/></symbol><use xlink:href="#H" transform="matrix(14 0 0 -14 233.724 317.238)"/><use xlink:href="#h" transform="matrix(14 0 0 -14 238.554 317.115)"/><use xlink:href="#g" transform="matrix(14 0 0 -14 243.004 317.286)"/><use xlink:href="#l" transform="matrix(14 0 0 -14 248.914 317.307)"/><use xlink:href="#h" transform="matrix(14 0 0 -14 257.74 317.115)"/><use xlink:href="#D" transform="matrix(14 0 0 -14 260.358 320.568)"/><use xlink:href="#e" transform="matrix(14 0 0 -14 267.115 317.28)"/><use xlink:href="#C" transform="matrix(14 0 0 -14 271.125 317.327)"/><use xlink:href="#e" transform="matrix(14 0 0 -14 276.14 317.28)"/><use xlink:href="#m" transform="matrix(14 0 0 -14 279.88 317.314)"/><use xlink:href="#D" transform="matrix(14 0 0 -14 284.34 320.568)"/><use xlink:href="#h" transform="matrix(14 0 0 -14 290.578 317.115)"/><use xlink:href="#v" transform="matrix(14 0 0 -14 291.48 320.52)"/><use xlink:href="#o" transform="matrix(14 0 0 -14 300.172 317.28)"/><use xlink:href="#i" transform="matrix(14 0 0 -14 305.299 317.293)"/><use xlink:href="#h" transform="matrix(14 0 0 -14 311.16 317.115)"/><use xlink:href="#I" transform="matrix(14 0 0 -14 315.31 317.115)"/><use xlink:href="#h" transform="matrix(14 0 0 -14 322.061 317.115)"/><use xlink:href="#l" transform="matrix(14 0 0 -14 326.32 317.307)"/><use xlink:href="#o" transform="matrix(14 0 0 -14 335.925 317.28)"/><use xlink:href="#k" transform="matrix(14 0 0 -14 341.298 317.28)"/><use xlink:href="#y" transform="matrix(14 0 0 -14 346.225 317.341)"/><use xlink:href="#h" transform="matrix(14 0 0 -14 350.02 317.115)"/><use xlink:href="#q" transform="matrix(14 0 0 -14 351.96 320.65)"/><use xlink:href="#y" transform="matrix(14 0 0 -14 360.748 317.341)"/><use xlink:href="#m" transform="matrix(14 0 0 -14 365.178 317.314)"/><use xlink:href="#r" transform="matrix(14 0 0 -14 371.3 317.238)"/><use xlink:href="#w" transform="matrix(14 0 0 -14 375.821 317.314)"/><use xlink:href="#h" transform="matrix(14 0 0 -14 378.73 317.115)"/></g><g data-name="P"><symbol id="J"><path d="M0 .004a.049.049 0 00.007.018.331.331 0 00.047.003h.028l.02.004.006.003a.093.093 0 01.007.021A9.812 9.812 0 01.195.6c0 .012-.006.02-.017.024A.624.624 0 01.092.63v.016H.147C.17.646.206.644.256.644h.023l.173.004H.602l.04-.002A.841.841 0 00.638.621L.621.554A.158.158 0 00.617.542L.601.543a.238.238 0 01-.005.042C.593.603.589.613.583.617c-.01.007-.03.01-.057.01L.347.625A.472.472 0 01.268.619L.266.61.255.513.237.377A.536.536 0 01.295.374H.3l.076.003h.026L.425.376h.043c.006 0 .015.001.027.004A.734.734 0 01.531.46.09.09 0 00.542.46h.005L.545.432.522.262.505.258l-.002.01v.01L.5.332C.496.343.492.348.489.35a.126.126 0 01-.045.004L.394.354H.374L.334.353h-.06L.245.352A.06.06 0 01.232.35a3.861 3.861 0 01-.03-.206.35.35 0 01-.006-.03A.983.983 0 00.188.06.176.176 0 01.186.032.73.73 0 01.288.019a.05.05 0 000-.008V0A.324.324 0 01.237 0a.352.352 0 00-.041.005.405.405 0 00-.047.001A1.141 1.141 0 01.024.001L0 .004z"/></symbol><use xlink:href="#J" transform="matrix(14 0 0 -14 266.665 336.432)"/><use xlink:href="#k" transform="matrix(14 0 0 -14 274.899 336.48)"/><use xlink:href="#o" transform="matrix(14 0 0 -14 279.894 336.48)"/><use xlink:href="#l" transform="matrix(14 0 0 -14 284.83 336.507)"/><use xlink:href="#h" transform="matrix(14 0 0 -14 293.655 336.315)"/><use xlink:href="#c" transform="matrix(14 0 0 -14 297.976 336.527)"/><use xlink:href="#d" transform="matrix(14 0 0 -14 305.482 336.548)"/><use xlink:href="#e" transform="matrix(14 0 0 -14 311.764 336.48)"/><use xlink:href="#f" transform="matrix(14 0 0 -14 315.32 336.644)"/><use xlink:href="#d" transform="matrix(14 0 0 -14 323.071 336.548)"/><use xlink:href="#g" transform="matrix(14 0 0 -14 329.368 336.486)"/><use xlink:href="#w" transform="matrix(14 0 0 -14 335.51 336.514)"/><use xlink:href="#c" transform="matrix(14 0 0 -14 338.822 336.527)"/><use xlink:href="#h" transform="matrix(14 0 0 -14 345.836 336.315)"/></g></g></svg>